<svg id="tai" viewBox="0 0 24 24" xmlns="http://www.w3.org/2000/svg">
  <path d="M12 1c-1.093 0-2 .907-2 2 0 .743.42 1.4 1.033 1.744A1 1 0 0 0 11 5v1H4c-1.09 0-2 .91-2 2v12c0 1.09.91 2 2 2h16c1.09 0 2-.91 2-2V8c0-1.09-.91-2-2-2h-7V5a1 1 0 0 0-.033-.256C13.579 4.4 14 3.744 14 3c0-1.093-.907-2-2-2zM4 8h16v12H4V8zm5 3a1 1 0 0 0-1 1 1 1 0 0 0 1 1 1 1 0 0 0 1-1 1 1 0 0 0-1-1zm6 0a1 1 0 0 0-1 1 1 1 0 0 0 1 1 1 1 0 0 0 1-1 1 1 0 0 0-1-1zm-5 4a1 1 0 0 0-1 1 1 1 0 0 0 1 1h4a1 1 0 0 0 1-1 1 1 0 0 0-1-1h-4z"/>
</svg>
