<svg id="tai" viewBox="0 0 24 24"
  xmlns="http://www.w3.org/2000/svg">
  <path d="M13.15 8.756c.39-.39.686-.89.731-1.442a.138.138 0 0 0-.14-.147h-.672c-.081 0-.146.067-.16.147-.038.25-.177.53-.424.778-.296.298-.642.44-.923.44-.28 0-.628-.139-.925-.435a1.482 1.482 0 0 1-.43-.785c-.013-.08-.079-.146-.16-.146h-.67a.138.138 0 0 0-.142.148c.047.551.347 1.06.738 1.449.426.423.981.736 1.59.735.61-.002 1.163-.317 1.587-.742zM19.379 8.756c.39-.39.686-.89.73-1.442a.138.138 0 0 0-.14-.147h-.672c-.081 0-.146.067-.159.147-.039.25-.177.53-.424.778-.297.298-.642.44-.923.44-.282 0-.628-.139-.926-.435a1.483 1.483 0 0 1-.43-.785c-.013-.08-.078-.146-.16-.146h-.67a.138.138 0 0 0-.141.148c.047.551.346 1.06.738 1.449.425.423.98.736 1.59.735.609-.002 1.163-.317 1.587-.742zM20.214 19.075c1.977-1.976 2.854-4.727 2.984-7.487a.708.708 0 0 0-.716-.734l-3.222-.003c-.406 0-.731.33-.765.734-.146 1.765-.81 3.205-1.685 4.08-.992.992-2.71 1.717-4.806 1.716-2.097 0-3.815-.72-4.808-1.712-.875-.873-1.544-2.31-1.693-4.073-.034-.404-.36-.733-.764-.733l-3.222.001A.708.708 0 0 0 .8 11.6c.133 2.757 1.012 5.503 2.987 7.476 2.15 2.149 5.216 2.997 8.213 2.997 2.997 0 6.064-.847 8.214-2.997z"/>
</svg>
